name processed_emg_signals						
nRows=103						
nColumns=7						
 						
endheader						
time	LGLTMED	LRF	LADDLONG	LST	LTA	LGM
0	0.01138899	0.016289758	0.003969485	0.11803321	0.050028271	0.015896456
0.001	0.011865594	0.017332183	0.005746922	0.111972042	0.035347333	0.017061143
0.002	0.012344175	0.018372276	0.007523756	0.105920724	0.02067458	0.018211047
0.003	0.012824356	0.019409278	0.009298928	0.099881084	0.00601947	0.019345111
0.004	0.013305755	0.020442435	0.011071379	0.093854868	0.008608557	0.020462293
0.005	0.01378799	0.021470995	0.012840052	0.087843735	0.023200093	0.021561573
0.006	0.014270669	0.022494214	0.014603891	0.081849256	0.037745776	0.022641949
0.007	0.014753402	0.023511352	0.016361847	0.075872909	0.052236304	0.023702441
0.008	0.015235792	0.024521678	0.018112875	0.069916076	0.066662447	0.024742096
0.009	0.015717444	0.025524469	0.019855939	0.063980041	0.081015062	0.025759986
0.01	0.016197959	0.026519013	0.021590011	0.058065989	0.095285105	0.026755213
0.011	0.016676936	0.027504607	0.02331407	0.052175003	0.109463644	0.027726907
0.012	0.017153977	0.028480565	0.025027111	0.04630806	0.123541869	0.028674235
0.013	0.017628681	0.029446209	0.026728138	0.040466033	0.137511105	0.029596394
0.014	0.01810065	0.030400879	0.028416169	0.034649687	0.151362825	0.03049262
0.015	0.018569486	0.03134393	0.03009024	0.028859681	0.165088655	0.031362187
0.016	0.019034794	0.032274732	0.031749399	0.023096563	0.17868039	0.032204407
0.017	0.019496182	0.033192673	0.033392713	0.017360771	0.19213	0.033018637
0.018	0.019953259	0.034097161	0.03501927	0.011652635	0.205429642	0.033804273
0.019	0.02040564	0.034987621	0.036628173	0.005972376	0.218571664	0.034560759
0.02	0.020852945	0.035863498	0.038218549	0.000320103	0.231548617	0.035287584
0.021	0.021294795	0.036724258	0.039789547	0.005304183	0.244353261	0.035984286
0.022	0.021730822	0.037569389	0.041340335	0.010900589	0.256978574	0.036650449
0.023	0.022160659	0.038398399	0.04287011	0.01646933	0.269417754	0.037285712
0.024	0.022583949	0.039210819	0.044378088	0.022010725	0.281664231	0.037889762
0.025	0.02300034	0.040006205	0.045863515	0.0275252	0.293711668	0.038462341
0.026	0.02340949	0.040784133	0.047325661	0.033013284	0.305553968	0.039003244
0.027	0.023811064	0.041544205	0.048763824	0.038475604	0.31718528	0.039512323
0.028	0.024204734	0.042286045	0.050177327	0.04391289	0.328600001	0.039989484
0.029	0.024590186	0.043009303	0.051565526	0.049325965	0.339792781	0.040434691
0.03	0.02496711	0.043713653	0.052927803	0.054715747	0.350758528	0.040847965
0.031	0.025335211	0.044398794	0.05426357	0.060083245	0.361492408	0.041229388
0.032	0.025694203	0.045064449	0.05557227	0.065429557	0.37198985	0.041579098
0.033	0.02604381	0.045710368	0.056853375	0.070755865	0.382246547	0.041897295
0.034	0.026383769	0.046336325	0.05810639	0.076063432	0.392258458	0.042184238
0.035	0.026713829	0.046942117	0.059330851	0.081353599	0.402021813	0.04244025
0.036	0.027033752	0.04752757	0.060526325	0.086627783	0.411533107	0.04266571
0.037	0.027343313	0.048092533	0.061692411	0.091887469	0.420789108	0.042861063
0.038	0.027642298	0.048636879	0.062828742	0.09713421	0.429786852	0.043026814
0.039	0.02793051	0.049160509	0.063934982	0.102369621	0.438523647	0.04316353
0.04	0.028207766	0.049663346	0.065010828	0.107595373	0.446997071	0.043271838
0.041	0.028473894	0.050145338	0.06605601	0.112813193	0.45520497	0.043352431
0.042	0.028728741	0.050606459	0.067070291	0.118024856	0.46314546	0.043406059
0.043	0.028972167	0.051046706	0.068053466	0.123232181	0.470816923	0.043433538
0.044	0.029204048	0.0514661	0.069005364	0.128437026	0.478218008	0.043435741
0.045	0.029424277	0.051864686	0.069925847	0.133641283	0.485347629	0.043413605
0.046	0.029632761	0.052242532	0.070814809	0.138846877	0.492204959	0.043368125
0.047	0.029829426	0.052599729	0.071672176	0.144055753	0.498789435	0.043300359
0.048	0.030014212	0.052936392	0.072497908	0.149269878	0.505100748	0.043211422
0.049	0.030187079	0.053252656	0.073291996	0.154491233	0.511138847	0.043102487
0.05	0.030348002	0.053548682	0.074054464	0.159721808	0.516903931	0.042974787
0.051	0.030496974	0.053824649	0.074785367	0.164963597	0.522396449	0.042829611
0.052	0.030634007	0.05408076	0.07548479	0.170218589	0.527617097	0.042668304
0.053	0.030759128	0.054317237	0.076152851	0.175488772	0.532566813	0.042492266
0.054	0.030872385	0.054534325	0.076789698	0.180776116	0.537246774	0.042302952
0.055	0.030973842	0.054732287	0.077395508	0.186082576	0.541658393	0.042101868
0.056	0.031063583	0.054911407	0.077970488	0.191410084	0.545803317	0.041890572
0.057	0.031141709	0.05507199	0.078514874	0.196760543	0.549683418	0.041670674
0.058	0.031208339	0.055214357	0.079028929	0.202135821	0.553300797	0.041443829
0.059	0.031263614	0.05533885	0.079512946	0.20753775	0.556657771	0.041211744
0.06	0.03130769	0.055445829	0.079967241	0.212968114	0.559756878	0.040976169
0.061	0.031340742	0.055535672	0.08039216	0.21842865	0.562600866	0.040738897
0.062	0.031362967	0.055608775	0.080788072	0.22392104	0.565192693	0.040501765
0.063	0.031374577	0.05566555	0.081155371	0.229446908	0.567535521	0.04026665
0.064	0.031375804	0.055706427	0.081494476	0.235007811	0.569632713	0.040035469
0.065	0.031366899	0.055731851	0.081805826	0.24060524	0.571487827	0.039810173
0.066	0.031348132	0.055742284	0.082089883	0.246240609	0.573104615	0.03959275
0.067	0.03131979	0.055738205	0.082347132	0.251915257	0.574487015	0.039385219
0.068	0.03128218	0.055720106	0.082578075	0.257630439	0.575639151	0.039189631
0.069	0.031235628	0.055688495	0.082783235	0.263387324	0.576565325	0.039008064
0.07	0.031180475	0.055643895	0.082963152	0.26918699	0.577270015	0.038842623
0.071	0.031117082	0.055586841	0.083118383	0.275030419	0.57775787	0.038695435
0.072	0.031045829	0.055517885	0.083249502	0.280918498	0.578033707	0.038568649
0.073	0.030967112	0.055437591	0.083357098	0.286852009	0.578102506	0.038464435
0.074	0.030881345	0.055346535	0.083441772	0.292831631	0.577969406	0.038384975
0.075	0.030788959	0.055245308	0.08350414	0.298857933	0.577639701	0.038332468
0.076	0.030690401	0.055134512	0.083544829	0.304931373	0.577118837	0.038309123
0.077	0.030586135	0.055014762	0.083564478	0.311052297	0.576412406	0.038317156
0.078	0.030476644	0.054886685	0.083563735	0.317220931	0.575526144	0.03835879
0.079	0.030362422	0.054750918	0.083543256	0.323437386	0.574465924	0.038436251
0.08	0.030243982	0.054608112	0.083503707	0.329701647	0.573237758	0.038551765
0.081	0.030121851	0.054458926	0.083445759	0.33601358	0.571847785	0.038707554
0.082	0.029996571	0.054304032	0.083370089	0.342372923	0.570302273	0.038905836
0.083	0.029868697	0.054144111	0.083277379	0.34877929	0.568607611	0.039148817
0.084	0.029738799	0.053979855	0.083168316	0.355232165	0.566770306	0.039438695
0.085	0.029607459	0.053811965	0.083043588	0.361730904	0.564796983	0.039777653
0.086	0.029475274	0.053641153	0.082903886	0.368274732	0.562694371	0.040167853
0.087	0.029342851	0.053468137	0.082749902	0.374862745	0.560469307	0.040611439
0.088	0.029210808	0.053293648	0.082582327	0.381493906	0.558128729	0.041110531
0.089	0.029079776	0.053118424	0.082401852	0.388167047	0.555679669	0.041667222
0.09	0.028950396	0.052943209	0.082209167	0.394880867	0.553129252	0.042283574
0.091	0.028823317	0.052768759	0.082004958	0.401633935	0.550484688	0.042961615
0.092	0.028699199	0.052595835	0.081789908	0.408424686	0.547753266	0.043703341
0.093	0.028578709	0.052425207	0.081564696	0.415251426	0.544942353	0.044510702
0.094	0.028462522	0.052257651	0.081329997	0.422112328	0.542059385	0.045385612
0.095	0.028351319	0.052093952	0.08108648	0.429005437	0.539111863	0.046329934
0.096	0.028245789	0.051934898	0.080834806	0.435928667	0.536107346	0.047345485
0.097	0.028146625	0.051781288	0.08057563	0.442879807	0.533053446	0.048434029
0.098	0.028054525	0.051633924	0.080309601	0.449856516	0.529957819	0.049597275
0.099	0.027970191	0.051493613	0.080037358	0.456856329	0.526828163	0.050836873
0.1	0.027894326	0.05136117	0.07975953	0.463876659	0.523672207	0.052154413
0.101	0.027827638	0.051237414	0.079476739	0.470914795	0.520497705	0.053551419
0.102	0.027770834	0.051123169	0.079189597	0.477967907	0.51731243	0.05502935
